<?xml version="1.0" standalone="no"?>
<svg xmlns="http://www.w3.org/2000/svg" viewBox="0 0 223.106 36" width="223.106" height="36"><g fill="#fff" color="#fff" transform="translate(0 6) scale(0.4705883)"><svg width="44.0" height="51.0" x="0.0" y="0.0" viewBox="0 0 44 51"><path fill="currentColor" fill-rule="evenodd" d="M21.986 0L44 12.704v25.393L22.029 50.801.014 38.111 0 12.718 21.986 0zM22 7.428L6.43 16.425V34.42l15.599 8.996 15.555-9.01-.014-17.994L22 7.428zm-.001 5.403l10.907 6.302v12.561l-10.907 6.302-10.893-6.288-.015-12.575L22 12.83z"></path></svg></g><path fill="#fff" fill-rule="nonzero" d="M7.22 0.96L10.56 0.96L10.56 11.95Q10.56 15.38 9.14 16.79Q7.73 18.19 5.04 18.19L5.04 18.19Q3.31 18.19 2.15 17.74Q0.98 17.28 0 16.30L0 16.30L1.87 14.26Q2.28 14.66 3.11 14.94Q3.94 15.22 5.00 15.22Q6.07 15.22 6.65 14.70Q7.22 14.18 7.22 12.77L7.22 12.77L7.22 0.96ZM23.28 4.25L23.28 18.05L21.19 18.05L20.23 16.39L16.90 18.19Q14.11 18.19 13.15 16.18L13.15 16.18Q12.67 15.19 12.49 14.05Q12.31 12.91 12.31 11.68Q12.31 10.44 12.34 9.85Q12.36 9.26 12.46 8.48Q12.55 7.70 12.73 7.18Q12.91 6.65 13.25 6.08Q13.58 5.52 14.06 5.18L14.06 5.18Q15.14 4.44 16.87 4.44L16.87 4.44L20.16 4.44L23.28 4.25ZM17.78 14.90L20.16 13.68L20.16 7.25L17.78 7.25Q16.46 7.25 15.95 8.26Q15.43 9.26 15.43 11.27Q15.43 13.27 15.92 14.09Q16.42 14.90 17.78 14.90L17.78 14.90ZM37.30 8.86L37.30 18.05L34.18 18.05L34.18 9.29Q34.18 8.11 33.70 7.68Q33.22 7.25 32.35 7.25L32.35 7.25L29.54 8.42L29.54 18.05L26.42 18.05L26.42 4.34L28.75 4.34L29.47 5.98L33.31 4.20Q34.92 4.20 36.11 5.39Q37.30 6.58 37.30 8.86L37.30 8.86ZM49.82 14.26L49.82 14.26L49.82 14.62Q49.68 16.42 48.30 17.33Q46.92 18.24 44.86 18.24L44.86 18.24Q41.81 18.24 40.58 17.14L40.58 17.14Q39.46 16.13 39.46 14.16L39.46 14.16L39.46 13.87L42.29 13.87Q42.29 14.98 42.86 15.38Q43.44 15.79 44.86 15.79L44.86 15.79Q46.78 15.79 46.78 14.40L46.78 14.40Q46.78 13.25 46.10 12.86L46.10 12.86Q45.79 12.67 45.31 12.58L45.31 12.58L42.89 12.17Q39.72 11.66 39.72 8.21L39.72 8.21Q39.72 6.29 41.12 5.22Q42.53 4.15 44.69 4.15L44.69 4.15Q49.61 4.15 49.61 8.40L49.61 8.40L49.61 8.71L46.90 8.71Q46.85 7.58 46.30 7.18Q45.74 6.77 44.75 6.77Q43.75 6.77 43.25 7.16Q42.74 7.56 42.74 8.04L42.74 8.04Q42.74 9.41 43.85 9.60L43.85 9.60L46.75 10.13Q49.82 10.70 49.82 14.26ZM59.86 11.86L59.86 11.86L59.86 10.61Q59.86 8.83 59.34 7.90Q58.82 6.96 57.19 6.96L57.19 6.96Q54.55 6.96 54.55 10.51L54.55 10.51L54.55 11.76Q54.55 15.58 57.19 15.58L57.19 15.58Q58.90 15.58 59.42 14.30L59.42 14.30Q59.86 13.30 59.86 11.86ZM62.98 11.14L62.98 11.14Q62.98 15.58 61.30 17.09L61.30 17.09Q59.88 18.38 57.19 18.38L57.19 18.38Q53.76 18.38 52.56 16.37L52.56 16.37Q51.43 14.52 51.43 11.14L51.43 11.14Q51.43 7.97 52.56 6.17L52.56 6.17Q53.81 4.15 57.11 4.15Q60.41 4.15 61.69 5.92Q62.98 7.68 62.98 11.14ZM76.10 8.86L76.10 18.05L72.98 18.05L72.98 9.29Q72.98 8.11 72.50 7.68Q72.02 7.25 71.16 7.25L71.16 7.25L68.35 8.42L68.35 18.05L65.23 18.05L65.23 4.34L67.56 4.34L68.28 5.98L72.12 4.20Q73.73 4.20 74.92 5.39Q76.10 6.58 76.10 8.86L76.10 8.86ZM97.66 18.05L97.66 7.85L94.58 14.33Q93.91 15.62 92.92 15.62Q91.92 15.62 91.25 14.26L91.25 14.26L88.13 7.85L88.13 18.05L84.79 18.05L84.79 0.96L88.08 0.96L92.90 10.82L97.70 0.96L100.99 0.96L100.99 18.05L97.66 18.05ZM113.69 4.25L113.69 18.05L111.60 18.05L110.64 16.39L107.30 18.19Q104.52 18.19 103.56 16.18L103.56 16.18Q103.08 15.19 102.90 14.05Q102.72 12.91 102.72 11.68Q102.72 10.44 102.74 9.85Q102.77 9.26 102.86 8.48Q102.96 7.70 103.14 7.18Q103.32 6.65 103.66 6.08Q103.99 5.52 104.47 5.18L104.47 5.18Q105.55 4.44 107.28 4.44L107.28 4.44L110.57 4.44L113.69 4.25ZM108.19 14.90L110.57 13.68L110.57 7.25L108.19 7.25Q106.87 7.25 106.36 8.26Q105.84 9.26 105.84 11.27Q105.84 13.27 106.33 14.09Q106.82 14.90 108.19 14.90L108.19 14.90ZM123.55 11.04L128.86 18.05L125.11 18.05L121.51 13.20L120.14 15.14L120.14 18.05L117.02 18.05L117.02 0L120.14 0L120.14 11.40L124.51 4.90L128.04 4.90L123.55 11.04ZM140.76 11.93L140.76 11.93L132.77 11.93Q132.77 13.80 133.36 14.66Q133.94 15.53 135.72 15.53L135.72 15.53Q136.87 15.53 137.42 14.80Q137.98 14.06 137.98 13.39L137.98 13.39L140.78 13.39Q140.78 15.96 139.40 17.16Q138.02 18.36 135.76 18.36Q133.49 18.36 132.24 17.71L132.24 17.71Q129.67 16.39 129.67 10.70L129.67 10.70Q129.67 7.32 131.14 5.75Q132.60 4.18 135.60 4.18L135.60 4.18Q140.81 4.18 140.81 9.96L140.81 9.96Q140.81 10.58 140.76 11.93ZM132.84 9.79L132.84 9.79L137.98 9.79Q137.98 8.21 137.38 7.49Q136.78 6.77 135.54 6.77Q134.30 6.77 133.57 7.50Q132.84 8.23 132.84 9.79ZM146.64 0L146.64 18.05L143.52 18.07L143.52 0L146.64 0ZM159.43 4.25L159.43 18.05L157.34 18.05L156.38 16.39L153.05 18.19Q150.26 18.19 149.30 16.18L149.30 16.18Q148.82 15.19 148.64 14.05Q148.46 12.91 148.46 11.68Q148.46 10.44 148.49 9.85Q148.51 9.26 148.61 8.48Q148.70 7.70 148.88 7.18Q149.06 6.65 149.40 6.08Q149.74 5.52 150.22 5.18L150.22 5.18Q151.30 4.44 153.02 4.44L153.02 4.44L156.31 4.44L159.43 4.25ZM153.94 14.90L156.31 13.68L156.31 7.25L153.94 7.25Q152.62 7.25 152.10 8.26Q151.58 9.26 151.58 11.27Q151.58 13.27 152.08 14.09Q152.57 14.90 153.94 14.90L153.94 14.90ZM172.25 4.25L172.25 18.05L170.16 18.05L169.20 16.39L165.86 18.19Q163.08 18.19 162.12 16.18L162.12 16.18Q161.64 15.19 161.46 14.05Q161.28 12.91 161.28 11.68Q161.28 10.44 161.30 9.85Q161.33 9.26 161.42 8.48Q161.52 7.70 161.70 7.18Q161.88 6.65 162.22 6.08Q162.55 5.52 163.03 5.18L163.03 5.18Q164.11 4.44 165.84 4.44L165.84 4.44L169.13 4.44L172.25 4.25ZM166.75 14.90L169.13 13.68L169.13 7.25L166.75 7.25Q165.43 7.25 164.92 8.26Q164.40 9.26 164.40 11.27Q164.40 13.27 164.89 14.09Q165.38 14.90 166.75 14.90L166.75 14.90ZM182.90 4.39L182.90 4.39L182.04 7.46Q181.68 7.32 181.22 7.32L181.22 7.32Q180.02 7.32 178.27 8.35L178.27 8.35L178.27 18.05L175.15 18.05L175.15 4.34L177.48 4.34L178.20 5.54L181.51 4.18Q181.75 4.15 182.16 4.15Q182.57 4.15 182.90 4.39ZM194.40 14.26L194.40 14.26L194.40 14.62Q194.26 16.42 192.88 17.33Q191.50 18.24 189.43 18.24L189.43 18.24Q186.38 18.24 185.16 17.14L185.16 17.14Q184.03 16.13 184.03 14.16L184.03 14.16L184.03 13.87L186.86 13.87Q186.86 14.98 187.44 15.38Q188.02 15.79 189.43 15.79L189.43 15.79Q191.35 15.79 191.35 14.40L191.35 14.40Q191.35 13.25 190.68 12.86L190.68 12.86Q190.37 12.67 189.89 12.58L189.89 12.58L187.46 12.17Q184.30 11.66 184.30 8.21L184.30 8.21Q184.30 6.29 185.70 5.22Q187.10 4.15 189.26 4.15L189.26 4.15Q194.18 4.15 194.18 8.40L194.18 8.40L194.18 8.71L191.47 8.71Q191.42 7.58 190.87 7.18Q190.32 6.77 189.32 6.77Q188.33 6.77 187.82 7.16Q187.32 7.56 187.32 8.04L187.32 8.04Q187.32 9.41 188.42 9.60L188.42 9.60L191.33 10.13Q194.40 10.70 194.40 14.26Z" transform="translate(28.706, 8.808)"></path></svg>